<svg width="432" height="81" viewBox="0 0 432 81" fill="none" xmlns="http://www.w3.org/2000/svg">
<path d="M0 0H411.873C422.918 0 431.873 8.95431 431.873 20V81H20C8.95429 81 0 72.0457 0 61V0Z" fill="#7FACE1"/>
<path d="M6.04004 8H406.839C417.885 8 426.839 16.9543 426.839 28V64H26.04C14.9943 64 6.04004 55.0457 6.04004 44V8Z" fill="white"/>
<path d="M25.8827 45.67V49H13.1777V27.31H17.2127V45.67H25.8827ZM48.6869 38.155C48.6869 39.745 48.4219 41.22 47.8919 42.58C47.3719 43.93 46.6319 45.1 45.6719 46.09C44.7119 47.08 43.5569 47.855 42.2069 48.415C40.8569 48.965 39.3569 49.24 37.7069 49.24C36.0669 49.24 34.5719 48.965 33.2219 48.415C31.8719 47.855 30.7119 47.08 29.7419 46.09C28.7819 45.1 28.0369 43.93 27.5069 42.58C26.9769 41.22 26.7119 39.745 26.7119 38.155C26.7119 36.565 26.9769 35.095 27.5069 33.745C28.0369 32.385 28.7819 31.21 29.7419 30.22C30.7119 29.23 31.8719 28.46 33.2219 27.91C34.5719 27.35 36.0669 27.07 37.7069 27.07C38.8069 27.07 39.8419 27.2 40.8119 27.46C41.7819 27.71 42.6719 28.07 43.4819 28.54C44.2919 29 45.0169 29.565 45.6569 30.235C46.3069 30.895 46.8569 31.635 47.3069 32.455C47.7569 33.275 48.0969 34.165 48.3269 35.125C48.5669 36.085 48.6869 37.095 48.6869 38.155ZM44.5619 38.155C44.5619 36.965 44.4019 35.9 44.0819 34.96C43.7619 34.01 43.3069 33.205 42.7169 32.545C42.1269 31.885 41.4069 31.38 40.5569 31.03C39.7169 30.68 38.7669 30.505 37.7069 30.505C36.6469 30.505 35.6919 30.68 34.8419 31.03C34.0019 31.38 33.2819 31.885 32.6819 32.545C32.0919 33.205 31.6369 34.01 31.3169 34.96C30.9969 35.9 30.8369 36.965 30.8369 38.155C30.8369 39.345 30.9969 40.415 31.3169 41.365C31.6369 42.305 32.0919 43.105 32.6819 43.765C33.2819 44.415 34.0019 44.915 34.8419 45.265C35.6919 45.615 36.6469 45.79 37.7069 45.79C38.7669 45.79 39.7169 45.615 40.5569 45.265C41.4069 44.915 42.1269 44.415 42.7169 43.765C43.3069 43.105 43.7619 42.305 44.0819 41.365C44.4019 40.415 44.5619 39.345 44.5619 38.155ZM70.1104 38.125V46.9C69.0104 47.71 67.8354 48.305 66.5854 48.685C65.3454 49.055 64.0154 49.24 62.5954 49.24C60.8254 49.24 59.2204 48.965 57.7804 48.415C56.3504 47.865 55.1254 47.1 54.1054 46.12C53.0954 45.14 52.3154 43.97 51.7654 42.61C51.2154 41.25 50.9404 39.765 50.9404 38.155C50.9404 36.525 51.2054 35.03 51.7354 33.67C52.2654 32.31 53.0154 31.14 53.9854 30.16C54.9654 29.18 56.1504 28.42 57.5404 27.88C58.9304 27.34 60.4904 27.07 62.2204 27.07C63.1004 27.07 63.9204 27.14 64.6804 27.28C65.4504 27.42 66.1604 27.615 66.8104 27.865C67.4704 28.105 68.0704 28.4 68.6104 28.75C69.1504 29.1 69.6454 29.485 70.0954 29.905L68.9404 31.735C68.7604 32.025 68.5254 32.205 68.2354 32.275C67.9454 32.335 67.6304 32.26 67.2904 32.05C66.9604 31.86 66.6304 31.67 66.3004 31.48C65.9704 31.29 65.6004 31.125 65.1904 30.985C64.7904 30.845 64.3354 30.73 63.8254 30.64C63.3254 30.55 62.7454 30.505 62.0854 30.505C61.0154 30.505 60.0454 30.685 59.1754 31.045C58.3154 31.405 57.5804 31.92 56.9704 32.59C56.3604 33.26 55.8904 34.065 55.5604 35.005C55.2304 35.945 55.0654 36.995 55.0654 38.155C55.0654 39.395 55.2404 40.505 55.5904 41.485C55.9504 42.455 56.4504 43.28 57.0904 43.96C57.7404 44.63 58.5204 45.145 59.4304 45.505C60.3404 45.855 61.3554 46.03 62.4754 46.03C63.2754 46.03 63.9904 45.945 64.6204 45.775C65.2504 45.605 65.8654 45.375 66.4654 45.085V41.155H63.7354C63.4754 41.155 63.2704 41.085 63.1204 40.945C62.9804 40.795 62.9104 40.615 62.9104 40.405V38.125H70.1104ZM78.048 49H73.998V27.31H78.048V49ZM97.7993 43.885C98.0193 43.885 98.2143 43.97 98.3843 44.14L99.9743 45.865C99.0943 46.955 98.0093 47.79 96.7193 48.37C95.4393 48.95 93.8993 49.24 92.0993 49.24C90.4893 49.24 89.0393 48.965 87.7493 48.415C86.4693 47.865 85.3743 47.1 84.4643 46.12C83.5543 45.14 82.8543 43.97 82.3643 42.61C81.8843 41.25 81.6443 39.765 81.6443 38.155C81.6443 36.525 81.9043 35.035 82.4243 33.685C82.9443 32.325 83.6743 31.155 84.6143 30.175C85.5643 29.195 86.6943 28.435 88.0043 27.895C89.3143 27.345 90.7643 27.07 92.3543 27.07C93.9343 27.07 95.3343 27.33 96.5543 27.85C97.7843 28.37 98.8293 29.05 99.6893 29.89L98.3393 31.765C98.2593 31.885 98.1543 31.99 98.0243 32.08C97.9043 32.17 97.7343 32.215 97.5143 32.215C97.3643 32.215 97.2093 32.175 97.0493 32.095C96.8893 32.005 96.7143 31.9 96.5243 31.78C96.3343 31.65 96.1143 31.51 95.8643 31.36C95.6143 31.21 95.3243 31.075 94.9943 30.955C94.6643 30.825 94.2793 30.72 93.8393 30.64C93.4093 30.55 92.9093 30.505 92.3393 30.505C91.3693 30.505 90.4793 30.68 89.6693 31.03C88.8693 31.37 88.1793 31.87 87.5993 32.53C87.0193 33.18 86.5693 33.98 86.2493 34.93C85.9293 35.87 85.7693 36.945 85.7693 38.155C85.7693 39.375 85.9393 40.46 86.2793 41.41C86.6293 42.36 87.0993 43.16 87.6893 43.81C88.2793 44.46 88.9743 44.96 89.7743 45.31C90.5743 45.65 91.4343 45.82 92.3543 45.82C92.9043 45.82 93.3993 45.79 93.8393 45.73C94.2893 45.67 94.6993 45.575 95.0693 45.445C95.4493 45.315 95.8043 45.15 96.1343 44.95C96.4743 44.74 96.8093 44.485 97.1393 44.185C97.2393 44.095 97.3443 44.025 97.4543 43.975C97.5643 43.915 97.6793 43.885 97.7993 43.885ZM114.198 40.81L111.558 33.595C111.428 33.275 111.293 32.895 111.153 32.455C111.013 32.015 110.873 31.54 110.733 31.03C110.603 31.54 110.468 32.02 110.328 32.47C110.188 32.91 110.053 33.295 109.923 33.625L107.298 40.81H114.198ZM121.323 49H118.203C117.853 49 117.568 48.915 117.348 48.745C117.128 48.565 116.963 48.345 116.853 48.085L115.233 43.66H106.248L104.628 48.085C104.548 48.315 104.393 48.525 104.163 48.715C103.933 48.905 103.648 49 103.308 49H100.158L108.693 27.31H112.803L121.323 49ZM149.127 38.155C149.127 39.745 148.862 41.205 148.332 42.535C147.802 43.865 147.057 45.01 146.097 45.97C145.137 46.93 143.982 47.675 142.632 48.205C141.282 48.735 139.782 49 138.132 49H129.867V27.31H138.132C139.782 27.31 141.282 27.58 142.632 28.12C143.982 28.65 145.137 29.395 146.097 30.355C147.057 31.305 147.802 32.445 148.332 33.775C148.862 35.105 149.127 36.565 149.127 38.155ZM144.987 38.155C144.987 36.965 144.827 35.9 144.507 34.96C144.197 34.01 143.742 33.21 143.142 32.56C142.552 31.9 141.832 31.395 140.982 31.045C140.142 30.695 139.192 30.52 138.132 30.52H133.917V45.79H138.132C139.192 45.79 140.142 45.615 140.982 45.265C141.832 44.915 142.552 44.415 143.142 43.765C143.742 43.105 144.197 42.305 144.507 41.365C144.827 40.415 144.987 39.345 144.987 38.155ZM156.739 30.52V36.535H164.329V39.64H156.739V45.775H166.369V49H152.689V27.31H166.369V30.52H156.739ZM184.29 38.215C185.03 38.215 185.675 38.125 186.225 37.945C186.775 37.755 187.23 37.49 187.59 37.15C187.96 36.8 188.235 36.38 188.415 35.89C188.595 35.39 188.685 34.835 188.685 34.225C188.685 33.645 188.595 33.12 188.415 32.65C188.235 32.18 187.965 31.78 187.605 31.45C187.245 31.12 186.79 30.87 186.24 30.7C185.69 30.52 185.04 30.43 184.29 30.43H181.275V38.215H184.29ZM184.29 27.31C185.74 27.31 186.995 27.48 188.055 27.82C189.115 28.16 189.99 28.635 190.68 29.245C191.37 29.855 191.88 30.585 192.21 31.435C192.55 32.285 192.72 33.215 192.72 34.225C192.72 35.275 192.545 36.24 192.195 37.12C191.845 37.99 191.32 38.74 190.62 39.37C189.92 40 189.04 40.49 187.98 40.84C186.93 41.19 185.7 41.365 184.29 41.365H181.275V49H177.24V27.31H184.29ZM202.369 37.63C203.129 37.63 203.789 37.535 204.349 37.345C204.919 37.155 205.384 36.895 205.744 36.565C206.114 36.225 206.389 35.825 206.569 35.365C206.749 34.905 206.839 34.4 206.839 33.85C206.839 32.75 206.474 31.905 205.744 31.315C205.024 30.725 203.919 30.43 202.429 30.43H199.849V37.63H202.369ZM212.749 49H209.104C208.414 49 207.914 48.73 207.604 48.19L203.044 41.245C202.874 40.985 202.684 40.8 202.474 40.69C202.274 40.58 201.974 40.525 201.574 40.525H199.849V49H195.814V27.31H202.429C203.899 27.31 205.159 27.465 206.209 27.775C207.269 28.075 208.134 28.5 208.804 29.05C209.484 29.6 209.984 30.26 210.304 31.03C210.624 31.79 210.784 32.63 210.784 33.55C210.784 34.28 210.674 34.97 210.454 35.62C210.244 36.27 209.934 36.86 209.524 37.39C209.124 37.92 208.624 38.385 208.024 38.785C207.434 39.185 206.759 39.5 205.999 39.73C206.259 39.88 206.499 40.06 206.719 40.27C206.939 40.47 207.139 40.71 207.319 40.99L212.749 49ZM235.484 38.155C235.484 39.745 235.219 41.22 234.689 42.58C234.169 43.93 233.429 45.1 232.469 46.09C231.509 47.08 230.354 47.855 229.004 48.415C227.654 48.965 226.154 49.24 224.504 49.24C222.864 49.24 221.369 48.965 220.019 48.415C218.669 47.855 217.509 47.08 216.539 46.09C215.579 45.1 214.834 43.93 214.304 42.58C213.774 41.22 213.509 39.745 213.509 38.155C213.509 36.565 213.774 35.095 214.304 33.745C214.834 32.385 215.579 31.21 216.539 30.22C217.509 29.23 218.669 28.46 220.019 27.91C221.369 27.35 222.864 27.07 224.504 27.07C225.604 27.07 226.639 27.2 227.609 27.46C228.579 27.71 229.469 28.07 230.279 28.54C231.089 29 231.814 29.565 232.454 30.235C233.104 30.895 233.654 31.635 234.104 32.455C234.554 33.275 234.894 34.165 235.124 35.125C235.364 36.085 235.484 37.095 235.484 38.155ZM231.359 38.155C231.359 36.965 231.199 35.9 230.879 34.96C230.559 34.01 230.104 33.205 229.514 32.545C228.924 31.885 228.204 31.38 227.354 31.03C226.514 30.68 225.564 30.505 224.504 30.505C223.444 30.505 222.489 30.68 221.639 31.03C220.799 31.38 220.079 31.885 219.479 32.545C218.889 33.205 218.434 34.01 218.114 34.96C217.794 35.9 217.634 36.965 217.634 38.155C217.634 39.345 217.794 40.415 218.114 41.365C218.434 42.305 218.889 43.105 219.479 43.765C220.079 44.415 220.799 44.915 221.639 45.265C222.489 45.615 223.444 45.79 224.504 45.79C225.564 45.79 226.514 45.615 227.354 45.265C228.204 44.915 228.924 44.415 229.514 43.765C230.104 43.105 230.559 42.305 230.879 41.365C231.199 40.415 231.359 39.345 231.359 38.155ZM256.907 38.125V46.9C255.807 47.71 254.632 48.305 253.382 48.685C252.142 49.055 250.812 49.24 249.392 49.24C247.622 49.24 246.017 48.965 244.577 48.415C243.147 47.865 241.922 47.1 240.902 46.12C239.892 45.14 239.112 43.97 238.562 42.61C238.012 41.25 237.737 39.765 237.737 38.155C237.737 36.525 238.002 35.03 238.532 33.67C239.062 32.31 239.812 31.14 240.782 30.16C241.762 29.18 242.947 28.42 244.337 27.88C245.727 27.34 247.287 27.07 249.017 27.07C249.897 27.07 250.717 27.14 251.477 27.28C252.247 27.42 252.957 27.615 253.607 27.865C254.267 28.105 254.867 28.4 255.407 28.75C255.947 29.1 256.442 29.485 256.892 29.905L255.737 31.735C255.557 32.025 255.322 32.205 255.032 32.275C254.742 32.335 254.427 32.26 254.087 32.05C253.757 31.86 253.427 31.67 253.097 31.48C252.767 31.29 252.397 31.125 251.987 30.985C251.587 30.845 251.132 30.73 250.622 30.64C250.122 30.55 249.542 30.505 248.882 30.505C247.812 30.505 246.842 30.685 245.972 31.045C245.112 31.405 244.377 31.92 243.767 32.59C243.157 33.26 242.687 34.065 242.357 35.005C242.027 35.945 241.862 36.995 241.862 38.155C241.862 39.395 242.037 40.505 242.387 41.485C242.747 42.455 243.247 43.28 243.887 43.96C244.537 44.63 245.317 45.145 246.227 45.505C247.137 45.855 248.152 46.03 249.272 46.03C250.072 46.03 250.787 45.945 251.417 45.775C252.047 45.605 252.662 45.375 253.262 45.085V41.155H250.532C250.272 41.155 250.067 41.085 249.917 40.945C249.777 40.795 249.707 40.615 249.707 40.405V38.125H256.907ZM267.35 37.63C268.11 37.63 268.77 37.535 269.33 37.345C269.9 37.155 270.365 36.895 270.725 36.565C271.095 36.225 271.37 35.825 271.55 35.365C271.73 34.905 271.82 34.4 271.82 33.85C271.82 32.75 271.455 31.905 270.725 31.315C270.005 30.725 268.9 30.43 267.41 30.43H264.83V37.63H267.35ZM277.73 49H274.085C273.395 49 272.895 48.73 272.585 48.19L268.025 41.245C267.855 40.985 267.665 40.8 267.455 40.69C267.255 40.58 266.955 40.525 266.555 40.525H264.83V49H260.795V27.31H267.41C268.88 27.31 270.14 27.465 271.19 27.775C272.25 28.075 273.115 28.5 273.785 29.05C274.465 29.6 274.965 30.26 275.285 31.03C275.605 31.79 275.765 32.63 275.765 33.55C275.765 34.28 275.655 34.97 275.435 35.62C275.225 36.27 274.915 36.86 274.505 37.39C274.105 37.92 273.605 38.385 273.005 38.785C272.415 39.185 271.74 39.5 270.98 39.73C271.24 39.88 271.48 40.06 271.7 40.27C271.92 40.47 272.12 40.71 272.3 40.99L277.73 49ZM291.532 40.81L288.892 33.595C288.762 33.275 288.627 32.895 288.487 32.455C288.347 32.015 288.207 31.54 288.067 31.03C287.937 31.54 287.802 32.02 287.662 32.47C287.522 32.91 287.387 33.295 287.257 33.625L284.632 40.81H291.532ZM298.657 49H295.537C295.187 49 294.902 48.915 294.682 48.745C294.462 48.565 294.297 48.345 294.187 48.085L292.567 43.66H283.582L281.962 48.085C281.882 48.315 281.727 48.525 281.497 48.715C281.267 48.905 280.982 49 280.642 49H277.492L286.027 27.31H290.137L298.657 49ZM324.422 27.31V49H320.867V34.99C320.867 34.43 320.897 33.825 320.957 33.175L314.402 45.49C314.092 46.08 313.617 46.375 312.977 46.375H312.407C311.767 46.375 311.292 46.08 310.982 45.49L304.352 33.13C304.382 33.46 304.407 33.785 304.427 34.105C304.447 34.425 304.457 34.72 304.457 34.99V49H300.902V27.31H303.947C304.127 27.31 304.282 27.315 304.412 27.325C304.542 27.335 304.657 27.36 304.757 27.4C304.867 27.44 304.962 27.505 305.042 27.595C305.132 27.685 305.217 27.805 305.297 27.955L311.792 40C311.962 40.32 312.117 40.65 312.257 40.99C312.407 41.33 312.552 41.68 312.692 42.04C312.832 41.67 312.977 41.315 313.127 40.975C313.277 40.625 313.437 40.29 313.607 39.97L320.012 27.955C320.092 27.805 320.177 27.685 320.267 27.595C320.357 27.505 320.452 27.44 320.552 27.4C320.662 27.36 320.782 27.335 320.912 27.325C321.042 27.315 321.197 27.31 321.377 27.31H324.422ZM340.722 40.81L338.082 33.595C337.952 33.275 337.817 32.895 337.677 32.455C337.537 32.015 337.397 31.54 337.257 31.03C337.127 31.54 336.992 32.02 336.852 32.47C336.712 32.91 336.577 33.295 336.447 33.625L333.822 40.81H340.722ZM347.847 49H344.727C344.377 49 344.092 48.915 343.872 48.745C343.652 48.565 343.487 48.345 343.377 48.085L341.757 43.66H332.772L331.152 48.085C331.072 48.315 330.917 48.525 330.687 48.715C330.457 48.905 330.172 49 329.832 49H326.682L335.217 27.31H339.327L347.847 49ZM364.342 43.885C364.562 43.885 364.757 43.97 364.927 44.14L366.517 45.865C365.637 46.955 364.552 47.79 363.262 48.37C361.982 48.95 360.442 49.24 358.642 49.24C357.032 49.24 355.582 48.965 354.292 48.415C353.012 47.865 351.917 47.1 351.007 46.12C350.097 45.14 349.397 43.97 348.907 42.61C348.427 41.25 348.187 39.765 348.187 38.155C348.187 36.525 348.447 35.035 348.967 33.685C349.487 32.325 350.217 31.155 351.157 30.175C352.107 29.195 353.237 28.435 354.547 27.895C355.857 27.345 357.307 27.07 358.897 27.07C360.477 27.07 361.877 27.33 363.097 27.85C364.327 28.37 365.372 29.05 366.232 29.89L364.882 31.765C364.802 31.885 364.697 31.99 364.567 32.08C364.447 32.17 364.277 32.215 364.057 32.215C363.907 32.215 363.752 32.175 363.592 32.095C363.432 32.005 363.257 31.9 363.067 31.78C362.877 31.65 362.657 31.51 362.407 31.36C362.157 31.21 361.867 31.075 361.537 30.955C361.207 30.825 360.822 30.72 360.382 30.64C359.952 30.55 359.452 30.505 358.882 30.505C357.912 30.505 357.022 30.68 356.212 31.03C355.412 31.37 354.722 31.87 354.142 32.53C353.562 33.18 353.112 33.98 352.792 34.93C352.472 35.87 352.312 36.945 352.312 38.155C352.312 39.375 352.482 40.46 352.822 41.41C353.172 42.36 353.642 43.16 354.232 43.81C354.822 44.46 355.517 44.96 356.317 45.31C357.117 45.65 357.977 45.82 358.897 45.82C359.447 45.82 359.942 45.79 360.382 45.73C360.832 45.67 361.242 45.575 361.612 45.445C361.992 45.315 362.347 45.15 362.677 44.95C363.017 44.74 363.352 44.485 363.682 44.185C363.782 44.095 363.887 44.025 363.997 43.975C364.107 43.915 364.222 43.885 364.342 43.885ZM373.331 49H369.281V27.31H373.331V49ZM398.872 38.155C398.872 39.745 398.607 41.22 398.077 42.58C397.557 43.93 396.817 45.1 395.857 46.09C394.897 47.08 393.742 47.855 392.392 48.415C391.042 48.965 389.542 49.24 387.892 49.24C386.252 49.24 384.757 48.965 383.407 48.415C382.057 47.855 380.897 47.08 379.927 46.09C378.967 45.1 378.222 43.93 377.692 42.58C377.162 41.22 376.897 39.745 376.897 38.155C376.897 36.565 377.162 35.095 377.692 33.745C378.222 32.385 378.967 31.21 379.927 30.22C380.897 29.23 382.057 28.46 383.407 27.91C384.757 27.35 386.252 27.07 387.892 27.07C388.992 27.07 390.027 27.2 390.997 27.46C391.967 27.71 392.857 28.07 393.667 28.54C394.477 29 395.202 29.565 395.842 30.235C396.492 30.895 397.042 31.635 397.492 32.455C397.942 33.275 398.282 34.165 398.512 35.125C398.752 36.085 398.872 37.095 398.872 38.155ZM394.747 38.155C394.747 36.965 394.587 35.9 394.267 34.96C393.947 34.01 393.492 33.205 392.902 32.545C392.312 31.885 391.592 31.38 390.742 31.03C389.902 30.68 388.952 30.505 387.892 30.505C386.832 30.505 385.877 30.68 385.027 31.03C384.187 31.38 383.467 31.885 382.867 32.545C382.277 33.205 381.822 34.01 381.502 34.96C381.182 35.9 381.022 36.965 381.022 38.155C381.022 39.345 381.182 40.415 381.502 41.365C381.822 42.305 382.277 43.105 382.867 43.765C383.467 44.415 384.187 44.915 385.027 45.265C385.877 45.615 386.832 45.79 387.892 45.79C388.952 45.79 389.902 45.615 390.742 45.265C391.592 44.915 392.312 44.415 392.902 43.765C393.492 43.105 393.947 42.305 394.267 41.365C394.587 40.415 394.747 39.345 394.747 38.155ZM394.222 21.085L389.362 25.375C389.162 25.555 388.972 25.665 388.792 25.705C388.612 25.745 388.382 25.765 388.102 25.765H385.417L388.552 21.7C388.652 21.56 388.752 21.45 388.852 21.37C388.952 21.28 389.062 21.215 389.182 21.175C389.302 21.135 389.432 21.11 389.572 21.1C389.722 21.09 389.897 21.085 390.097 21.085H394.222ZM420.701 27.31V49H418.631C418.311 49 418.041 48.95 417.821 48.85C417.611 48.74 417.406 48.56 417.206 48.31L405.881 33.85C405.941 34.51 405.971 35.12 405.971 35.68V49H402.416V27.31H404.531C404.701 27.31 404.846 27.32 404.966 27.34C405.096 27.35 405.206 27.38 405.296 27.43C405.396 27.47 405.491 27.535 405.581 27.625C405.671 27.705 405.771 27.815 405.881 27.955L417.251 42.475C417.221 42.125 417.196 41.78 417.176 41.44C417.156 41.1 417.146 40.785 417.146 40.495V27.31H420.701Z" fill="#3E72D6"/>
</svg>
